<?xml version="1.0" standalone="no"?>
<!DOCTYPE svg PUBLIC "-//W3C//DTD SVG 20010904//EN"
 "http://www.w3.org/TR/2001/REC-SVG-20010904/DTD/svg10.dtd">
<svg version="1.0" xmlns="http://www.w3.org/2000/svg"
 width="3498.000000pt" height="1787.000000pt" viewBox="0 0 3498.000000 1787.000000"
 preserveAspectRatio="xMidYMid meet">

<g transform="translate(0.000000,1787.000000) scale(0.100000,-0.100000)"
fill="#000000" stroke="none">
<path d="M4270 17580 c0 -38 -2 -40 -30 -40 -20 0 -30 -5 -30 -15 0 -10 10
-15 30 -15 27 0 30 -3 30 -34 0 -57 -19 -139 -45 -191 -31 -63 -16 -82 18 -23
31 52 57 146 57 205 0 42 0 43 35 43 l35 0 0 -99 c0 -124 -9 -151 -50 -151
-20 0 -30 -5 -30 -15 0 -24 63 -19 86 6 16 18 20 40 22 155 l4 134 -51 0 -51
0 0 40 c0 29 -4 40 -15 40 -11 0 -15 -11 -15 -40z"/>
<path d="M4900 17600 c0 -18 -7 -20 -65 -20 -51 0 -65 -3 -65 -15 0 -8 8 -15
18 -15 9 -1 35 -17 57 -36 45 -40 42 -46 -37 -65 -29 -7 -48 -17 -48 -25 0
-11 7 -13 26 -8 l27 7 -5 -64 c-3 -36 -13 -79 -21 -96 -14 -26 -14 -32 -2 -36
9 -4 20 7 32 33 l18 39 78 1 77 0 0 -40 c0 -29 4 -40 15 -40 12 0 15 18 15
100 l0 101 26 -3 c36 -4 42 18 7 26 -15 4 -45 12 -67 17 l-39 10 39 40 c22 23
47 39 61 39 14 0 23 6 23 15 0 12 -14 15 -70 15 -63 0 -70 2 -70 20 0 11 -7
20 -15 20 -8 0 -15 -9 -15 -20z m64 -71 c-35 -39 -48 -40 -85 -9 l-34 29 69 1
69 0 -19 -21z m-10 -84 c20 -8 36 -22 36 -30 0 -12 -15 -15 -75 -15 -86 0
-101 17 -37 43 20 8 38 15 38 16 1 1 18 -6 38 -14z m36 -95 c0 -18 -7 -20 -75
-20 -68 0 -75 2 -75 20 0 18 7 20 75 20 68 0 75 -2 75 -20z"/>
<path d="M7013 17534 c-80 -80 -99 -114 -42 -73 32 23 50 20 94 -16 29 -24 29
-25 10 -39 -11 -9 -47 -30 -80 -47 -73 -39 -68 -35 -60 -49 5 -7 21 -3 50 15
24 14 46 25 49 25 3 0 6 -31 6 -70 0 -56 3 -70 15 -70 8 0 15 5 15 10 0 6 42
10 105 10 63 0 105 -4 105 -10 0 -5 7 -10 15 -10 12 0 15 17 15 95 l0 94 -100
3 -101 3 51 40 c53 42 114 118 103 129 -3 3 -42 6 -86 6 -65 0 -77 2 -68 13
10 13 5 29 -8 25 -3 -1 -43 -39 -88 -84z m198 -1 c-5 -10 -27 -35 -49 -56
l-39 -38 -47 32 -46 33 22 23 c19 20 31 23 95 23 67 0 73 -2 64 -17z m69 -218
l0 -55 -105 0 -105 0 0 55 0 55 105 0 105 0 0 -55z"/>
<path d="M8350 17580 c0 -36 -2 -40 -25 -40 -16 0 -25 -6 -25 -15 0 -9 10 -15
26 -15 24 0 25 -2 22 -52 -3 -49 -5 -52 -35 -60 -22 -6 -30 -13 -27 -23 4 -10
12 -12 31 -4 13 5 26 9 29 9 2 0 4 -31 4 -70 0 -68 -1 -70 -25 -70 -16 0 -25
-6 -25 -15 0 -9 9 -15 24 -15 52 0 56 6 56 96 0 80 1 85 25 96 14 6 25 15 25
21 0 5 -11 6 -25 3 -24 -6 -25 -4 -25 39 0 41 2 45 25 45 16 0 25 6 25 15 0 9
-9 15 -25 15 -22 0 -25 4 -25 40 0 29 -4 40 -15 40 -11 0 -15 -11 -15 -40z"/>
<path d="M1540 17565 c0 -41 -2 -45 -25 -45 -16 0 -25 -6 -25 -15 0 -9 9 -15
25 -15 26 0 26 -1 23 -72 -3 -70 -3 -71 -35 -82 -20 -7 -30 -15 -25 -22 8 -14
123 25 129 43 3 7 -4 9 -16 6 -20 -5 -21 -1 -21 61 0 59 2 66 20 66 11 0 20 7
20 15 0 8 -9 15 -20 15 -17 0 -20 7 -20 45 0 33 -4 45 -15 45 -11 0 -15 -12
-15 -45z"/>
<path d="M2081 17564 c-25 -26 -69 -62 -98 -81 -29 -20 -50 -39 -47 -44 10
-16 106 46 170 110 l41 40 39 -41 c45 -47 153 -120 165 -112 18 11 8 24 -30
44 -22 11 -66 44 -99 75 -33 30 -68 55 -78 55 -11 0 -39 -21 -63 -46z"/>
<path d="M3978 17585 c-9 -19 -19 -25 -45 -25 l-33 0 0 -135 0 -135 120 0 120
0 0 60 0 60 -105 0 c-98 0 -105 1 -105 20 0 19 7 20 95 20 l95 0 0 55 0 55
-60 0 c-56 0 -60 1 -51 19 10 18 6 31 -11 31 -5 0 -14 -11 -20 -25z m112 -80
c0 -25 -1 -25 -80 -25 -79 0 -80 0 -80 25 0 25 1 25 80 25 79 0 80 0 80 -25z
m20 -155 l0 -30 -90 0 -90 0 0 30 0 30 90 0 90 0 0 -30z"/>
<path d="M6210 17575 l0 -35 -95 0 c-78 0 -95 -3 -95 -15 0 -10 10 -15 30 -15
26 0 33 -7 56 -52 15 -29 42 -72 61 -95 l34 -41 -44 -26 c-24 -15 -65 -33 -90
-42 -30 -10 -44 -20 -41 -29 7 -18 72 4 147 49 49 30 56 31 73 18 10 -8 52
-30 93 -49 57 -27 75 -32 82 -22 6 10 -7 20 -47 36 -30 12 -70 32 -89 43 l-34
21 40 52 c21 29 46 71 55 95 15 38 20 42 50 42 24 0 34 5 34 15 0 12 -17 15
-95 15 l-95 0 0 35 c0 24 -5 35 -15 35 -10 0 -15 -11 -15 -35z m120 -70 c0
-29 -85 -155 -105 -155 -22 0 -105 118 -105 150 0 6 38 10 105 10 58 0 105 -2
105 -5z"/>
<path d="M6580 17590 c0 -18 -7 -20 -55 -20 -42 0 -55 -3 -55 -15 0 -12 13
-15 55 -15 48 0 55 -2 55 -20 0 -17 -7 -20 -50 -20 l-50 0 0 -145 c0 -122 2
-145 15 -145 13 0 15 22 15 135 l0 135 80 0 80 0 0 -115 c0 -108 -1 -115 -20
-115 -13 0 -18 -5 -14 -15 4 -8 14 -15 23 -15 35 0 41 21 41 152 l0 128 -45 0
c-38 0 -45 3 -45 20 0 17 7 20 50 20 38 0 50 4 50 15 0 11 -12 15 -50 15 -43
0 -50 3 -50 20 0 11 -7 20 -15 20 -8 0 -15 -9 -15 -20z"/>
<path d="M6790 17550 l0 -60 -35 0 c-24 0 -35 -5 -35 -15 0 -10 10 -15 30 -15
27 0 30 -3 30 -33 0 -43 -27 -133 -51 -174 -11 -18 -16 -34 -10 -37 12 -8 47
50 70 116 l18 53 8 -35 c10 -49 54 -132 66 -128 14 5 13 7 -21 80 -16 35 -32
84 -35 111 l-7 47 36 0 c25 0 36 4 36 15 0 10 -11 15 -35 15 l-35 0 0 60 c0
47 -3 60 -15 60 -12 0 -15 -13 -15 -60z"/>
<path d="M7862 17602 c-9 -3 -7 -13 9 -40 31 -52 34 -55 47 -40 13 16 -36 87
-56 80z"/>
<path d="M1640 17535 l0 -65 110 0 110 0 0 65 0 65 -110 0 -110 0 0 -65z m190
30 c0 -12 -16 -15 -80 -15 -64 0 -80 3 -80 15 0 12 16 15 80 15 64 0 80 -3 80
-15z m0 -55 c0 -18 -7 -20 -80 -20 -73 0 -80 2 -80 20 0 18 7 20 80 20 73 0
80 -2 80 -20z"/>
<path d="M4685 17590 c-8 -13 32 -60 52 -60 20 0 16 14 -16 44 -20 19 -31 24
-36 16z"/>
<path d="M7534 17575 c-6 -23 -11 -25 -65 -25 -46 0 -59 -3 -59 -15 0 -11 12
-15 50 -15 l51 0 -17 -32 c-9 -17 -37 -53 -61 -80 -54 -57 -41 -63 28 -12 49
36 104 52 135 40 14 -5 8 -13 -31 -39 -84 -55 -104 -117 -50 -153 47 -30 255
-31 255 -1 0 9 -28 11 -108 9 -96 -4 -110 -2 -132 16 -24 20 -24 22 -10 49 15
26 73 73 91 73 5 0 9 -20 9 -45 0 -33 4 -45 15 -45 12 0 15 13 15 56 0 54 0
55 38 70 77 30 92 39 84 51 -5 8 -24 4 -67 -13 -57 -24 -61 -24 -88 -8 -28 15
-57 15 -101 -2 -16 -6 -15 -3 5 29 l24 37 88 0 c71 0 87 3 87 15 0 12 -16 15
-80 15 l-80 0 6 25 c5 19 2 25 -10 25 -8 0 -18 -11 -22 -25z"/>
<path d="M7970 17590 c0 -5 18 -10 40 -10 29 0 40 -4 40 -15 0 -11 -11 -15
-41 -15 l-40 0 3 -42 c2 -36 7 -44 26 -46 32 -5 30 -42 -3 -42 -14 0 -25 -4
-25 -10 0 -5 11 -10 25 -10 18 0 25 -5 25 -20 0 -16 -7 -20 -30 -20 -16 0 -30
-4 -30 -10 0 -6 53 -10 140 -10 87 0 140 4 140 10 0 6 -16 10 -35 10 -28 0
-35 4 -35 20 0 16 7 20 30 20 17 0 30 5 30 10 0 6 -13 10 -30 10 -23 0 -30 4
-30 20 0 14 7 20 24 20 27 0 51 24 41 40 -5 8 -11 6 -19 -5 -8 -11 -23 -16
-46 -13 -27 2 -36 8 -38 26 -3 20 1 22 42 22 46 0 46 0 46 35 l0 35 -55 0
c-30 0 -55 -4 -55 -10 0 -5 20 -10 45 -10 33 0 45 -4 45 -15 0 -11 -12 -15
-45 -15 l-45 0 0 -39 c0 -25 5 -41 15 -45 8 -3 15 -15 15 -26 0 -17 -6 -20
-45 -20 -37 0 -45 3 -45 19 0 10 9 21 20 24 20 5 29 47 10 47 -5 0 -10 -7 -10
-15 0 -11 -11 -15 -40 -15 -36 0 -40 3 -40 25 0 23 4 25 40 25 39 0 40 1 40
35 l0 35 -50 0 c-27 0 -50 -4 -50 -10z m170 -210 c0 -17 -7 -20 -45 -20 -38 0
-45 3 -45 20 0 17 7 20 45 20 38 0 45 -3 45 -20z"/>
<path d="M8458 17463 c-3 -117 -7 -146 -26 -187 -15 -33 -19 -53 -12 -60 14
-14 59 90 67 153 l6 51 38 0 c34 0 38 -3 44 -32 17 -78 89 -176 121 -164 14 5
10 14 -24 50 -39 43 -72 103 -72 132 0 10 13 14 40 14 l40 0 0 90 0 90 -109 0
-109 0 -4 -137z m192 47 l0 -60 -80 0 -80 0 0 60 0 60 80 0 80 0 0 -60z"/>
<path d="M3770 17585 c0 -14 45 -65 57 -65 18 0 16 13 -8 44 -18 23 -49 36
-49 21z"/>
<path d="M4450 17410 c0 -153 2 -180 15 -180 8 0 15 7 15 15 0 11 12 15 45 15
33 0 45 -4 45 -15 0 -8 7 -15 15 -15 13 0 15 27 15 180 l0 180 -75 0 -75 0 0
-180z m120 15 l0 -135 -45 0 -45 0 0 135 0 135 45 0 45 0 0 -135z"/>
<path d="M6846 17582 c-10 -17 13 -67 25 -55 8 8 6 19 -4 38 -8 16 -17 23 -21
17z"/>
<path d="M9660 17575 c0 -12 16 -15 80 -15 l80 0 0 -175 c0 -149 2 -175 15
-175 12 0 15 19 15 115 0 63 2 115 5 115 2 0 33 -16 69 -35 43 -24 67 -32 71
-25 9 15 6 17 -73 60 -65 35 -67 38 -70 78 l-3 42 100 0 c83 0 101 3 101 15 0
13 -28 15 -195 15 -167 0 -195 -2 -195 -15z"/>
<path d="M10323 17556 l6 -36 -100 0 c-81 0 -99 -3 -99 -15 0 -12 19 -15 109
-15 l109 0 21 -36 c12 -19 21 -37 21 -39 0 -3 -27 -2 -60 2 -82 8 -146 -16
-166 -63 -29 -68 16 -108 135 -120 70 -8 174 3 169 18 -2 5 -52 10 -120 11
-98 2 -119 5 -137 21 -27 24 -27 58 0 82 28 25 138 31 196 11 51 -17 62 -4 28
33 -12 14 -30 37 -40 53 l-17 27 66 0 c52 0 66 3 66 15 0 12 -15 15 -74 15
l-73 0 -9 32 c-5 17 -16 34 -23 36 -11 4 -13 -3 -8 -32z"/>
<path d="M2910 17565 c0 -12 22 -15 112 -17 l113 -3 -82 -53 c-46 -29 -104
-57 -133 -64 -29 -7 -50 -17 -50 -25 0 -9 8 -12 23 -9 12 3 49 7 81 11 58 5
59 5 43 -13 -26 -29 -32 -78 -13 -107 23 -36 67 -55 141 -62 56 -5 65 -4 65
11 0 13 -10 16 -52 16 -55 0 -114 23 -131 51 -13 21 -2 64 23 89 17 17 34 20
110 20 77 0 90 2 90 16 0 15 -14 16 -120 12 -66 -3 -120 -4 -120 -3 0 1 29 19
65 40 72 43 110 78 100 94 -4 7 -54 11 -136 11 -107 0 -129 -3 -129 -15z"/>
<path d="M8817 17513 c-11 -110 -8 -191 8 -229 32 -76 170 -85 249 -16 29 26
68 115 53 124 -7 4 -20 -11 -37 -45 -32 -67 -76 -97 -142 -97 -42 0 -54 5 -80
31 l-31 30 7 135 c6 112 5 134 -7 134 -10 0 -16 -19 -20 -67z"/>
<path d="M5170 17555 c0 -12 15 -15 71 -15 62 0 70 -2 65 -17 -2 -10 -7 -33
-11 -50 -5 -27 -11 -33 -31 -33 -68 0 -144 -66 -144 -124 0 -34 25 -66 51 -66
34 0 80 42 109 101 27 52 34 60 53 56 12 -3 39 -9 60 -12 20 -4 40 -11 42 -16
9 -14 -24 -82 -56 -115 -19 -19 -27 -34 -20 -38 16 -10 87 67 101 108 6 20 13
36 15 36 2 0 15 -4 29 -10 21 -8 26 -6 26 5 0 9 -11 20 -25 25 -22 8 -25 16
-25 55 0 33 -4 45 -15 45 -11 0 -15 -11 -15 -41 0 -38 -2 -41 -22 -35 -13 3
-42 9 -66 13 -39 5 -43 8 -38 29 4 13 9 44 13 69 l6 45 -87 0 c-70 0 -86 -3
-86 -15z m100 -158 c0 -23 -58 -105 -79 -112 -52 -16 -56 42 -7 91 35 35 86
47 86 21z"/>
<path d="M3449 17547 c-106 -40 -163 -129 -139 -217 11 -42 41 -70 76 -70 58
0 119 99 131 210 5 55 8 60 30 60 33 0 84 -23 107 -48 26 -30 32 -101 11 -141
-16 -33 -99 -81 -138 -81 -11 0 -17 -5 -14 -12 6 -19 64 -11 111 15 55 31 79
67 84 129 3 44 0 59 -20 87 -13 19 -38 43 -56 54 -41 24 -136 32 -183 14z m37
-73 c-7 -64 -39 -145 -66 -169 -26 -24 -62 -15 -78 18 -28 59 12 144 87 184
24 13 49 23 54 23 6 0 7 -22 3 -56z"/>
<path d="M5730 17551 c-114 -37 -178 -131 -151 -221 21 -71 84 -88 138 -38 29
27 61 112 69 184 l7 56 39 -6 c53 -9 88 -33 104 -73 30 -71 6 -130 -69 -168
-28 -14 -59 -25 -69 -25 -10 0 -18 -7 -18 -15 0 -38 135 16 174 68 29 40 29
134 0 174 -39 54 -154 87 -224 64z m26 -72 c-8 -61 -38 -144 -62 -170 -24 -27
-60 -24 -80 6 -37 57 10 160 90 196 22 10 45 19 50 19 5 0 6 -23 2 -51z"/>
<path d="M9210 17545 c0 -12 18 -15 106 -15 l106 0 -35 -39 c-64 -71 -72 -166
-18 -215 43 -39 181 -64 181 -32 0 9 -18 15 -59 19 -65 6 -102 25 -119 63 -19
40 -14 78 14 120 46 68 71 83 142 84 48 0 62 3 62 15 0 13 -28 15 -190 15
-162 0 -190 -2 -190 -15z"/>
<path d="M10585 17466 c-8 -99 10 -178 50 -216 20 -19 29 -21 47 -13 30 14 83
114 66 124 -8 5 -21 -8 -38 -39 -14 -26 -32 -47 -39 -47 -8 0 -24 16 -35 35
-18 30 -21 50 -19 138 2 80 -1 102 -12 102 -9 0 -15 -23 -20 -84z"/>
<path d="M10857 17543 c-3 -5 8 -36 24 -68 16 -33 34 -88 40 -122 7 -42 16
-63 25 -63 18 0 18 39 0 105 -22 85 -75 171 -89 148z"/>
<path d="M4664 17489 c-3 -6 7 -24 23 -41 24 -24 32 -27 41 -16 9 11 3 20 -23
41 -22 18 -36 23 -41 16z"/>
<path d="M2030 17455 c0 -12 19 -15 115 -15 96 0 115 3 115 15 0 12 -19 15
-115 15 -96 0 -115 -3 -115 -15z"/>
<path d="M6550 17432 c0 -18 -4 -32 -10 -32 -5 0 -10 -4 -10 -10 0 -5 11 -10
25 -10 21 0 25 -5 25 -30 0 -25 -4 -30 -25 -30 -14 0 -25 -4 -25 -10 0 -5 11
-10 25 -10 23 0 25 -4 25 -40 0 -22 5 -40 10 -40 6 0 10 18 10 40 0 36 3 40
25 40 14 0 25 5 25 10 0 6 -11 10 -25 10 -21 0 -25 5 -25 30 0 25 4 30 25 30
14 0 25 5 25 10 0 6 -5 10 -11 10 -7 0 -8 11 -4 30 4 19 3 30 -4 30 -7 0 -14
-14 -18 -30 -7 -35 -35 -38 -41 -5 -7 36 -22 41 -22 7z"/>
<path d="M3750 17435 c0 -10 10 -15 30 -15 30 0 30 0 30 -57 0 -53 -3 -60 -31
-84 -43 -35 -35 -58 9 -25 l34 24 36 -21 c32 -19 56 -22 174 -25 122 -4 138
-2 138 12 0 14 -17 16 -129 16 -126 0 -178 9 -193 33 -4 7 -8 45 -8 85 l0 72
-45 0 c-33 0 -45 -4 -45 -15z"/>
<path d="M7830 17435 c0 -10 10 -15 30 -15 l30 0 0 -64 c0 -60 -2 -66 -30 -86
-16 -12 -30 -26 -30 -31 0 -15 26 -10 53 12 l26 20 32 -23 c29 -21 40 -23 171
-23 98 0 142 4 145 12 3 8 -38 12 -147 15 -145 3 -153 4 -171 27 -15 18 -19
39 -19 97 l0 74 -45 0 c-33 0 -45 -4 -45 -15z"/>
<path d="M1610 17416 c0 -9 12 -16 31 -18 l31 -3 -42 -47 c-25 -29 -36 -48
-27 -48 7 0 22 9 32 20 11 12 31 20 48 20 l31 0 -30 -31 c-16 -17 -44 -39 -62
-51 -17 -11 -30 -24 -26 -29 8 -13 42 8 101 63 37 36 58 49 75 46 21 -3 19 -7
-29 -57 -57 -59 -58 -61 -43 -61 19 0 69 43 96 82 31 44 54 50 54 14 0 -50
-17 -76 -50 -76 -20 0 -30 -5 -30 -15 0 -23 63 -20 84 4 11 12 20 43 23 80 l6
61 -103 0 c-90 0 -101 2 -90 15 10 11 36 15 111 15 81 0 99 3 99 15 0 13 -23
15 -145 15 -119 0 -145 -3 -145 -14z"/>
<path d="M4704 17322 c-16 -36 -30 -70 -32 -74 -2 -4 3 -8 10 -8 13 0 32 31
64 107 11 25 11 32 1 36 -9 3 -24 -18 -43 -61z"/>
<path d="M1990 17295 c0 -69 3 -85 15 -85 8 0 15 5 15 10 0 6 48 10 125 10 77
0 125 -4 125 -10 0 -5 7 -10 15 -10 12 0 15 16 15 85 l0 85 -155 0 -155 0 0
-85z m280 10 l0 -45 -125 0 -125 0 0 45 0 45 125 0 125 0 0 -45z"/>
<path d="M11050 17320 c-11 -11 -20 -27 -20 -35 0 -22 37 -55 60 -55 23 0 60
33 60 55 0 22 -37 55 -60 55 -11 0 -29 -9 -40 -20z m71 -16 c17 -21 0 -49 -32
-49 -24 0 -36 23 -25 51 7 19 40 18 57 -2z"/>
<path d="M2425 17321 c-9 -15 42 -91 61 -91 23 0 15 22 -20 64 -22 26 -36 35
-41 27z"/>
<path d="M8008 17308 c-21 -11 -38 -24 -38 -29 0 -10 68 16 83 30 18 18 -10
17 -45 -1z"/>
<path d="M8135 17320 c-8 -13 75 -54 86 -43 5 5 -10 18 -36 31 -24 12 -47 17
-50 12z"/>
<path d="M3640 8190 l0 -8190 7605 0 7605 0 0 8190 0 8190 -7605 0 -7605 0 0
-8190z m2080 7700 l0 -30 75 0 c68 0 75 -2 75 -20 0 -18 -7 -20 -75 -20 l-75
0 0 -30 0 -30 65 0 65 0 2 -177 3 -178 31 65 c31 63 46 119 58 208 l6 42 -45
0 c-38 0 -45 3 -45 20 0 17 7 20 45 20 l45 0 0 80 0 80 30 0 c20 0 30 -5 30
-15 0 -11 7 -13 28 -9 25 5 29 2 45 -42 14 -38 15 -49 5 -56 -23 -14 -38 -8
-48 20 -25 68 -29 68 -29 5 l-1 -63 45 0 c38 0 45 -3 45 -20 0 -17 -7 -20 -46
-20 l-46 0 7 -42 c12 -79 36 -153 71 -217 31 -57 34 -66 20 -79 -8 -8 -21 -12
-28 -10 -16 6 -66 104 -83 163 l-12 39 -17 -49 c-22 -68 -73 -155 -90 -155 -8
0 -17 7 -20 16 -5 13 -9 14 -20 4 -22 -17 -90 -9 -94 12 -2 11 5 18 20 20 23
3 23 5 26 156 l3 152 -101 0 -100 0 0 -180 0 -180 -25 0 -25 0 0 195 0 195 65
0 65 0 0 30 0 30 -75 0 c-68 0 -75 2 -75 20 0 18 7 20 75 20 l75 0 0 30 c0 25
4 30 25 30 21 0 25 -5 25 -30z m3600 -30 c0 -57 1 -60 24 -60 13 0 26 -6 29
-12 5 -18 89 52 117 97 18 29 27 35 56 35 30 0 43 -9 89 -58 29 -32 70 -67 90
-77 37 -21 43 -47 12 -53 -9 -2 -30 6 -47 18 -16 12 -30 17 -30 11 0 -6 -18
-11 -40 -11 -38 0 -40 -2 -40 -30 l0 -30 65 0 65 0 0 -75 0 -75 -55 0 c-30 0
-55 -4 -55 -8 0 -15 63 -73 107 -99 46 -27 53 -40 26 -50 -23 -9 -97 33 -142
82 l-38 41 -33 -39 c-32 -38 -117 -87 -151 -87 -9 0 -19 6 -22 14 -4 10 12 23
48 41 29 14 68 42 86 63 l33 37 -62 3 -62 3 0 74 0 75 65 0 65 0 0 29 c0 27
-3 29 -46 33 -27 2 -53 -2 -63 -9 -31 -24 -57 -14 -52 20 0 4 -8 7 -19 7 -17
0 -20 -7 -20 -38 0 -29 7 -45 30 -67 23 -22 27 -31 18 -42 -6 -8 -20 -12 -30
-10 -17 5 -18 -4 -18 -114 l0 -119 -30 0 -29 0 -3 117 -3 116 -29 -46 c-31
-48 -44 -55 -63 -36 -9 9 -6 21 11 48 24 38 76 162 76 180 0 6 -16 11 -35 11
-24 0 -35 5 -35 15 0 11 11 15 40 15 l40 0 0 60 0 60 30 0 30 0 0 -60z m780
40 c0 -19 7 -20 110 -20 91 0 110 -3 110 -15 0 -12 -19 -15 -110 -15 l-110 0
0 -30 0 -30 125 0 125 0 0 -45 c0 -43 -1 -45 -30 -45 -27 0 -30 3 -30 30 l0
30 -113 0 -114 0 -41 -49 -41 -48 28 -27 28 -27 54 66 c30 35 59 65 65 65 5 0
18 -6 28 -13 16 -12 13 -19 -47 -80 l-64 -67 79 0 c83 0 85 2 50 42 -13 16
-12 19 13 30 25 11 29 9 75 -43 51 -57 54 -66 27 -83 -12 -8 -20 -7 -31 4 -12
12 -35 14 -101 12 l-85 -3 0 -85 0 -84 -35 0 -35 0 0 80 0 80 -119 0 c-109 0
-119 2 -124 19 -4 18 3 20 96 27 l102 7 -53 47 c-28 26 -52 51 -52 57 0 15 29
25 50 18 13 -4 25 4 40 25 l21 30 -70 0 -71 0 0 -30 c0 -27 -3 -30 -30 -30
-29 0 -30 2 -30 45 l0 45 120 0 120 0 0 30 0 30 -105 0 c-87 0 -105 3 -105 15
0 12 18 15 105 15 98 0 105 1 105 20 0 16 7 20 35 20 28 0 35 -4 35 -20z
m-4870 -35 l0 -45 130 0 c122 0 130 -1 130 -19 0 -16 -8 -20 -46 -23 -46 -3
-47 -4 -65 -53 -10 -27 -43 -82 -74 -122 l-55 -72 43 -25 c55 -32 154 -76 172
-76 21 0 28 -19 14 -36 -9 -11 -22 -14 -41 -10 -33 6 -159 65 -203 94 l-30 20
-61 -37 c-33 -20 -93 -48 -133 -61 -62 -22 -73 -23 -81 -10 -15 24 -8 30 67
60 40 15 92 40 117 54 l46 27 -51 61 c-28 34 -65 90 -82 125 -30 61 -33 63
-69 63 -31 0 -38 4 -38 20 0 19 7 20 125 20 l125 0 0 45 c0 43 1 45 30 45 29
0 30 -2 30 -45z m1210 -16 l0 -51 111 8 111 7 -4 -24 c-3 -23 -8 -24 -102 -32
-55 -4 -101 -9 -104 -11 -2 -3 -1 -35 3 -71 l8 -67 51 6 c168 19 193 19 200 1
10 -26 -5 -32 -98 -39 -44 -4 -96 -10 -115 -13 l-33 -6 7 -94 7 -94 -34 3 -33
3 -7 84 c-4 46 -9 86 -12 89 -3 2 -51 0 -106 -7 -144 -16 -160 -15 -160 9 0
12 8 21 23 24 19 5 216 26 235 26 7 0 5 78 -4 118 -5 24 -5 24 -113 17 -98 -7
-109 -6 -115 11 -9 23 9 34 60 34 23 0 69 3 102 6 l62 7 -6 53 -7 54 37 0 36
0 0 -51z m2350 -27 l0 -78 58 -18 c65 -21 256 -109 265 -122 3 -5 -1 -18 -8
-28 -14 -18 -20 -16 -137 42 -68 34 -135 64 -150 68 l-28 6 0 -156 0 -156 -35
0 -35 0 0 260 0 260 35 0 35 0 0 -78z m280 23 c24 -39 21 -65 -7 -65 -22 0
-68 86 -50 94 26 10 36 5 57 -29z m-1170 -37 c-1 -167 -39 -274 -119 -335 -47
-36 -148 -71 -232 -80 -48 -5 -57 -3 -63 12 -3 10 -4 20 -2 22 3 3 38 11 78
18 92 16 134 34 183 76 53 47 75 103 82 209 l6 90 -187 0 -186 0 0 -80 0 -80
-35 0 -35 0 0 100 0 100 255 0 255 0 0 -52z m1087 8 c22 -45 18 -56 -18 -56
-12 0 -51 79 -44 90 14 23 42 8 62 -34z m-4499 -35 c-7 -21 -193 -340 -198
-341 -5 0 -200 335 -200 344 0 4 90 6 201 6 118 0 199 -4 197 -9z m1187 -111
c4 -23 12 -40 20 -40 8 0 16 17 20 40 6 34 10 40 32 40 26 0 27 -12 7 -64 -4
-11 -1 -16 10 -16 9 0 16 -7 16 -15 0 -10 -10 -15 -30 -15 -28 0 -30 -2 -30
-40 0 -38 2 -40 30 -40 20 0 30 -5 30 -15 0 -10 -10 -15 -30 -15 -30 0 -30 -1
-30 -55 0 -52 -1 -55 -25 -55 -24 0 -25 3 -25 55 l0 55 -35 0 c-24 0 -35 5
-35 15 0 10 11 15 35 15 34 0 35 1 35 40 0 38 -2 40 -30 40 -20 0 -30 5 -30
15 0 8 6 15 14 15 12 0 13 7 5 32 -13 46 -12 48 15 48 20 0 25 -6 31 -40z
m1605 -40 c0 -19 -7 -20 -255 -20 -248 0 -255 1 -255 20 0 19 7 20 255 20 248
0 255 -1 255 -20z m1220 0 c0 -19 -7 -20 -255 -20 -248 0 -255 1 -255 20 0 19
7 20 255 20 248 0 255 -1 255 -20z m1471 -136 c14 -18 17 -15 -67 -64 -66 -38
-109 -48 -117 -26 -5 12 6 23 41 40 26 14 61 34 77 45 36 25 48 26 66 5z m297
-26 c42 -23 79 -43 81 -45 3 -2 -3 -11 -11 -20 -15 -14 -21 -14 -50 -3 -18 8
-57 29 -86 47 -45 28 -52 36 -42 48 17 21 22 20 108 -27z m8132 -1343 l0 -605
-5965 0 -5965 0 0 605 0 605 5965 0 5965 0 0 -605z m-14189 338 c28 -43 52
-79 53 -81 2 -1 27 34 56 78 48 74 55 80 86 80 19 0 34 -2 34 -5 0 -3 -31 -51
-70 -107 l-70 -101 0 -84 0 -83 -35 0 -35 0 0 80 0 81 -70 104 c-38 57 -70
107 -70 110 0 3 16 5 35 5 33 0 39 -5 86 -77z m399 -38 c35 -18 60 -62 60
-105 l0 -30 -100 0 c-94 0 -100 -1 -100 -20 0 -29 44 -70 73 -70 14 0 35 11
48 25 14 14 35 25 52 25 31 0 31 0 15 -35 -16 -35 -57 -55 -113 -55 -90 0
-135 47 -135 140 0 92 43 139 128 140 24 0 56 -7 72 -15z m315 -10 c23 -22 25
-31 25 -124 0 -55 3 -106 6 -115 5 -12 -1 -16 -24 -16 -17 0 -32 6 -34 12 -4
10 -10 10 -32 0 -77 -35 -166 -1 -166 64 0 47 34 80 91 88 85 13 99 18 99 31
0 22 -29 45 -56 45 -33 0 -64 -17 -64 -35 0 -10 -10 -15 -30 -15 -40 0 -40 30
1 64 26 22 40 26 95 26 56 0 68 -4 89 -25z m135 13 c0 -9 3 -9 12 0 12 12 80
17 91 6 3 -4 2 -15 -4 -25 -7 -14 -17 -17 -33 -13 -44 11 -56 -16 -56 -132 l0
-104 -30 0 -30 0 0 140 0 140 25 0 c14 0 25 -5 25 -12z m200 -23 c0 -22 -4
-25 -35 -25 -31 0 -35 3 -35 25 0 22 4 25 35 25 31 0 35 -3 35 -25z m0 -220
c0 -22 -4 -25 -35 -25 -31 0 -35 3 -35 25 0 22 4 25 35 25 31 0 35 -3 35 -25z
m13140 -2250 l0 -605 -5965 0 -5965 0 0 605 0 605 5965 0 5965 0 0 -605z
m-14210 328 l1 -88 82 88 c80 85 83 87 127 87 l45 0 -77 -76 c-43 -42 -78 -79
-78 -81 0 -3 36 -55 80 -115 l81 -109 -43 3 c-40 3 -45 7 -96 78 -29 41 -57
82 -62 90 -7 13 -13 11 -34 -9 -23 -22 -26 -32 -26 -93 l0 -68 -35 0 -35 0 0
190 0 190 35 0 35 0 0 -87z m486 -46 c26 -24 37 -43 41 -75 l6 -42 -102 0
c-95 0 -101 -1 -101 -20 0 -27 43 -70 70 -70 12 0 32 11 46 25 25 26 84 35 84
14 0 -6 -15 -26 -34 -45 -31 -31 -39 -34 -94 -34 -50 0 -66 4 -91 25 -56 48
-65 151 -19 210 26 34 51 44 111 44 40 1 53 -4 83 -32z m138 -9 c9 -24 25 -68
35 -98 12 -35 21 -49 25 -40 3 8 19 51 35 95 27 76 30 80 61 83 28 3 32 1 25
-15 -3 -10 -32 -85 -62 -168 -69 -185 -81 -205 -133 -205 -32 0 -38 4 -42 24
-4 22 -1 25 26 28 22 2 35 11 43 29 11 23 7 41 -37 160 -28 74 -50 137 -50
142 0 4 13 7 29 7 25 0 32 -6 45 -42z m296 7 c0 -22 -4 -25 -35 -25 -31 0 -35
3 -35 25 0 22 4 25 35 25 31 0 35 -3 35 -25z m0 -220 c0 -22 -4 -25 -35 -25
-31 0 -35 3 -35 25 0 22 4 25 35 25 31 0 35 -3 35 -25z m13290 -2255 l0 -610
-5965 0 -5965 0 0 610 0 610 5965 0 5965 0 0 -610z m-14210 333 l1 -88 82 88
c80 85 83 87 127 87 l45 0 -77 -76 c-43 -42 -78 -79 -78 -81 0 -3 36 -55 80
-115 l81 -109 -43 3 c-40 3 -45 7 -96 78 -29 41 -57 82 -62 90 -7 13 -13 11
-34 -9 -23 -22 -26 -32 -26 -93 l0 -68 -35 0 -35 0 0 190 0 190 35 0 35 0 0
-87z m1029 72 c36 -18 55 -64 48 -113 -5 -30 -21 -52 -93 -119 l-86 -83 91 0
c90 0 91 0 91 -25 l0 -25 -130 0 c-116 0 -130 2 -130 17 0 26 45 83 104 133
62 53 96 97 96 128 0 29 -34 62 -65 62 -28 0 -65 -32 -65 -55 0 -10 -10 -15
-30 -15 -22 0 -30 5 -30 18 1 27 25 63 51 78 32 18 113 17 148 -1z m-543 -118
c26 -24 37 -43 41 -75 l6 -42 -102 0 c-95 0 -101 -1 -101 -20 0 -27 43 -70 70
-70 12 0 32 11 46 25 25 26 84 35 84 14 0 -6 -15 -26 -34 -45 -31 -31 -39 -34
-94 -34 -50 0 -66 4 -91 25 -56 48 -65 151 -19 210 26 34 51 44 111 44 40 1
53 -4 83 -32z m138 -9 c9 -24 25 -68 35 -98 12 -35 21 -49 25 -40 3 8 19 51
35 95 27 76 30 80 61 83 28 3 32 1 25 -15 -3 -10 -32 -85 -62 -168 -69 -185
-81 -205 -133 -205 -32 0 -38 4 -42 24 -4 22 -1 25 26 28 22 2 35 11 43 29 11
23 7 41 -37 160 -28 74 -50 137 -50 142 0 4 13 7 29 7 25 0 32 -6 45 -42z
m586 7 c0 -22 -4 -25 -35 -25 -31 0 -35 3 -35 25 0 22 4 25 35 25 31 0 35 -3
35 -25z m0 -220 c0 -22 -4 -25 -35 -25 -31 0 -35 3 -35 25 0 22 4 25 35 25 31
0 35 -3 35 -25z m-1123 -1966 l88 -132 3 132 3 131 34 0 35 0 0 -190 0 -190
-35 0 c-34 0 -38 5 -122 131 l-88 132 -3 -132 -3 -131 -34 0 -35 0 0 190 0
190 35 0 c34 0 38 -5 122 -131z m1013 78 l0 -54 53 4 c63 5 93 -10 118 -57 35
-64 18 -156 -36 -198 -23 -18 -39 -21 -111 -21 l-84 1 0 189 0 189 30 0 c30 0
30 -1 30 -53z m-730 -152 c0 -100 1 -105 24 -120 20 -14 29 -14 48 -4 35 18
38 27 38 132 l0 97 30 0 30 0 0 -140 0 -140 -25 0 c-16 0 -25 6 -25 16 0 14
-2 14 -22 0 -36 -25 -104 -21 -133 9 -24 23 -25 30 -25 140 l0 115 30 0 30 0
0 -105z m290 95 c0 -7 6 -7 19 0 28 14 93 12 117 -4 17 -12 22 -12 39 0 28 21
98 18 126 -5 22 -18 24 -27 27 -140 l4 -121 -31 0 -31 0 0 99 c0 83 -3 103
-19 122 -19 23 -21 23 -48 9 -28 -16 -28 -17 -31 -123 l-3 -107 -34 0 -35 0 0
110 c0 99 -2 110 -20 120 -26 14 -58 -2 -70 -36 -6 -14 -10 -63 -10 -110 l0
-84 -30 0 -30 0 0 140 0 140 30 0 c17 0 30 -5 30 -10z m860 -5 c35 -18 60 -62
60 -105 l0 -30 -100 0 c-94 0 -100 -1 -100 -20 0 -29 44 -70 73 -70 14 0 35
11 48 25 14 14 35 25 52 25 31 0 31 0 15 -35 -16 -35 -57 -55 -113 -55 -90 0
-135 47 -135 140 0 92 43 139 128 140 24 0 56 -7 72 -15z m160 3 c0 -9 3 -9
12 0 12 12 80 17 91 6 3 -4 2 -15 -4 -25 -7 -14 -17 -17 -33 -13 -44 11 -56
-16 -56 -132 l0 -104 -30 0 -30 0 0 140 0 140 25 0 c14 0 25 -5 25 -12z m200
-23 c0 -22 -4 -25 -35 -25 -31 0 -35 3 -35 25 0 22 4 25 35 25 31 0 35 -3 35
-25z m0 -220 c0 -22 -4 -25 -35 -25 -31 0 -35 3 -35 25 0 22 4 25 35 25 31 0
35 -3 35 -25z m12330 -1020 l0 -495 -7155 0 -7155 0 0 495 0 495 7155 0 7155
0 0 -495z m-13984 -1688 c45 -53 22 -143 -43 -168 -22 -8 -23 -10 -9 -25 22
-21 58 -71 85 -116 l23 -38 -39 0 c-36 0 -40 4 -78 62 -57 89 -68 98 -120 98
l-45 0 0 -80 0 -80 -35 0 -35 0 0 191 0 191 136 -4 c135 -3 136 -3 160 -31z
m514 9 c0 -21 -6 -25 -32 -28 -25 -2 -34 -8 -36 -25 -3 -20 1 -23 27 -23 24 0
31 -4 31 -20 0 -16 -7 -20 -30 -20 l-30 0 0 -120 0 -120 -30 0 -30 0 0 120 c0
113 -1 120 -20 120 -13 0 -20 7 -20 20 0 13 7 20 20 20 16 0 20 7 20 30 0 45
31 70 85 70 41 0 45 -2 45 -24z m-224 -109 c26 -24 37 -43 41 -75 l6 -42 -102
0 c-95 0 -101 -1 -101 -20 0 -27 43 -70 70 -70 12 0 32 11 46 25 25 26 84 35
84 14 0 -6 -15 -26 -34 -45 -31 -31 -39 -34 -94 -34 -50 0 -66 4 -91 25 -56
48 -65 151 -19 210 26 34 51 44 111 44 40 1 53 -4 83 -32z m429 11 c29 -23 55
-74 55 -108 0 -19 -6 -20 -106 -20 -105 0 -105 0 -99 -22 9 -30 51 -68 76 -68
11 0 31 11 45 25 27 27 74 34 74 11 0 -8 -11 -27 -24 -42 -20 -24 -32 -28 -89
-32 -65 -4 -68 -3 -101 30 -60 60 -61 155 -1 215 29 29 39 33 88 33 41 0 61
-5 82 -22z m145 10 c0 -9 3 -9 12 0 14 14 84 16 92 3 4 -5 3 -17 0 -26 -5 -12
-14 -14 -34 -10 -46 10 -60 -21 -60 -137 l0 -98 -30 0 -30 0 0 140 0 140 25 0
c14 0 25 -5 25 -12z m325 -10 c29 -23 55 -74 55 -108 0 -19 -6 -20 -106 -20
-105 0 -105 0 -99 -22 9 -30 51 -68 76 -68 11 0 31 11 45 25 27 27 74 34 74
11 0 -8 -11 -27 -24 -42 -20 -24 -32 -28 -89 -32 -65 -4 -68 -3 -101 30 -60
60 -61 155 -1 215 29 29 39 33 88 33 41 0 61 -5 82 -22z m145 6 c0 -14 2 -14
22 0 35 25 102 20 135 -8 27 -23 28 -28 31 -140 l4 -116 -36 0 -36 0 0 110 c0
100 -2 110 -20 120 -23 12 -53 6 -75 -16 -11 -12 -15 -40 -15 -115 l0 -99 -30
0 -30 0 0 140 0 140 25 0 c16 0 25 -6 25 -16z m423 4 c28 -15 46 -38 47 -60 0
-27 -39 -22 -66 7 -29 32 -58 32 -89 0 -20 -19 -25 -34 -25 -75 0 -41 5 -56
25 -75 13 -14 33 -25 45 -25 21 0 60 32 60 50 0 6 14 10 30 10 41 0 39 -23 -4
-66 -29 -29 -41 -34 -79 -34 -25 0 -57 4 -71 10 -86 32 -88 226 -3 260 32 13
105 12 130 -2z m266 -1 c29 -14 56 -58 65 -104 l6 -33 -105 0 c-67 0 -105 -4
-105 -10 0 -23 31 -69 51 -75 30 -10 67 2 79 25 7 13 21 20 40 20 34 0 38 -15
12 -46 -25 -32 -55 -44 -107 -44 -88 0 -135 47 -135 135 0 58 24 111 59 130
32 18 108 19 140 2z m-2029 -692 c0 -24 -3 -25 -60 -25 l-60 0 0 -165 0 -165
-35 0 -35 0 0 165 0 164 -62 3 c-57 3 -63 5 -66 26 l-3 22 160 0 161 0 0 -25z
m54 -117 c9 -24 25 -68 35 -98 12 -35 21 -49 25 -40 3 8 19 51 35 95 27 76 30
80 61 83 28 3 32 1 25 -15 -3 -10 -32 -85 -62 -168 -69 -185 -81 -205 -133
-205 -32 0 -38 4 -42 24 -4 22 -1 25 26 28 22 2 35 11 43 29 11 23 7 41 -37
160 -28 74 -50 137 -50 142 0 4 13 7 29 7 25 0 32 -6 45 -42z m266 32 c0 -7 6
-7 19 0 38 20 98 12 131 -17 88 -79 40 -253 -70 -253 -23 0 -50 5 -61 10 -18
10 -19 7 -19 -55 l0 -65 -30 0 -30 0 0 195 0 195 30 0 c17 0 30 -5 30 -10z
m435 -12 c29 -23 55 -74 55 -108 0 -19 -6 -20 -106 -20 -105 0 -105 0 -99 -22
9 -30 51 -68 76 -68 11 0 31 11 45 25 27 27 74 34 74 11 0 -8 -11 -27 -24 -42
-20 -24 -32 -28 -89 -32 -65 -4 -68 -3 -101 30 -60 60 -61 155 -1 215 29 29
39 33 88 33 41 0 61 -5 82 -22z m175 -13 c0 -22 -4 -25 -35 -25 -31 0 -35 3
-35 25 0 22 4 25 35 25 31 0 35 -3 35 -25z m0 -220 c0 -22 -4 -25 -35 -25 -31
0 -35 3 -35 25 0 22 4 25 35 25 31 0 35 -3 35 -25z m13060 -1020 l0 -495
-7155 0 -7155 0 0 495 0 495 7155 0 7155 0 0 -495z m-7939 -2161 c25 -12 59
-64 59 -89 0 -3 -16 -5 -35 -5 -24 0 -35 5 -35 14 0 23 -41 46 -80 46 -62 0
-103 -48 -67 -79 8 -6 47 -18 88 -28 116 -26 165 -89 125 -161 -24 -44 -65
-62 -141 -62 -84 0 -129 22 -151 75 -20 48 -18 55 15 55 23 0 33 -7 43 -27 34
-72 178 -70 178 2 0 31 -26 47 -115 70 -84 22 -115 49 -115 100 0 46 13 71 48
89 37 20 145 20 183 0z m409 -9 l0 -25 -110 0 -110 0 0 -55 0 -55 105 0 105 0
0 -25 0 -25 -105 0 -105 0 0 -60 0 -60 115 0 115 0 0 -25 0 -25 -150 0 -150 0
0 190 0 190 145 0 145 0 0 -25z m300 -132 c35 -87 70 -173 77 -191 l14 -33
-38 3 c-36 3 -39 6 -57 56 l-19 53 -75 -3 -75 -3 -20 -52 c-18 -49 -22 -53
-53 -53 l-34 0 25 68 c14 37 47 122 73 190 l47 122 35 0 36 0 64 -157z m395
134 c38 -33 45 -101 15 -140 -13 -16 -34 -33 -47 -38 -22 -8 -23 -10 -9 -25
22 -21 58 -71 85 -116 l23 -38 -40 0 c-37 0 -42 4 -77 58 -60 91 -73 102 -122
102 l-43 0 0 -80 0 -80 -35 0 -35 0 0 190 0 190 129 0 c121 0 132 -2 156 -23z
m355 8 c35 -18 74 -71 66 -90 -10 -27 -50 -17 -79 20 -24 31 -33 35 -72 35
-35 0 -52 -6 -77 -29 -32 -29 -33 -31 -33 -111 0 -80 1 -82 33 -111 45 -41
102 -41 143 0 16 16 29 37 29 45 0 17 36 22 58 7 11 -7 10 -16 -8 -50 -30 -59
-70 -81 -151 -81 -81 0 -123 24 -156 90 -54 106 -11 246 87 283 31 11 132 7
160 -8z m190 -65 l0 -80 90 0 90 0 0 80 0 80 35 0 35 0 0 -190 0 -190 -35 0
-35 0 0 85 0 85 -90 0 -90 0 0 -85 0 -85 -35 0 -35 0 0 190 0 190 35 0 35 0 0
-80z"/>
<path d="M9506 15824 l-39 -44 89 0 88 0 -44 45 c-24 25 -47 45 -50 44 -3 0
-22 -21 -44 -45z"/>
<path d="M9450 15615 c0 -45 0 -45 35 -45 35 0 35 0 35 45 0 45 0 45 -35 45
-35 0 -35 0 -35 -45z"/>
<path d="M9580 15615 l0 -45 40 0 40 0 0 45 0 45 -40 0 -40 0 0 -45z"/>
<path d="M5072 15753 c21 -48 74 -127 106 -156 l30 -29 42 54 c42 52 79 121
80 146 0 9 -34 12 -135 12 l-135 0 12 -27z"/>
<path d="M6791 14307 c-33 -17 -65 -62 -58 -81 8 -20 37 -21 37 -1 0 27 38 55
75 55 40 0 75 -28 75 -61 0 -35 -20 -61 -111 -149 -61 -58 -89 -92 -89 -107 0
-23 2 -23 120 -23 113 0 120 1 120 20 0 19 -7 20 -90 20 -106 0 -106 1 -15 81
82 71 105 105 105 152 0 51 -15 76 -55 93 -42 17 -82 18 -114 1z"/>
<path d="M7091 14308 c-48 -26 -64 -62 -69 -150 -7 -139 25 -205 105 -214 52
-6 84 13 111 66 41 82 24 243 -31 288 -23 20 -88 25 -116 10z m103 -61 c18
-24 21 -43 21 -117 0 -74 -3 -93 -21 -117 -42 -56 -113 -34 -128 39 -16 79 1
192 32 216 27 21 72 10 96 -21z"/>
<path d="M7373 14306 c-32 -15 -69 -69 -58 -86 11 -18 45 -11 45 8 0 47 90 72
122 35 41 -48 24 -88 -70 -172 -74 -65 -94 -90 -106 -128 l-7 -23 125 0 c119
0 126 1 126 20 0 19 -7 20 -90 20 -49 0 -90 4 -90 9 0 5 34 39 75 76 112 100
132 155 77 216 -33 37 -98 48 -149 25z"/>
<path d="M7669 14305 c-44 -24 -63 -78 -63 -175 0 -62 5 -95 18 -123 45 -91
154 -88 202 6 22 42 22 192 0 234 -34 66 -98 90 -157 58z m113 -65 c12 -24 18
-59 18 -110 0 -100 -21 -144 -71 -148 -26 -2 -40 3 -55 19 -16 18 -19 36 -19
129 0 93 3 111 19 129 15 16 29 21 55 19 30 -2 39 -9 53 -38z"/>
<path d="M4495 14375 c-39 -38 -32 -45 45 -45 42 0 70 4 70 10 0 19 -48 60
-70 60 -11 0 -32 -11 -45 -25z"/>
<path d="M4834 14285 c-63 -15 -74 -21 -74 -44 0 -46 66 -56 105 -16 14 13 25
36 25 50 0 14 -1 25 -2 24 -2 -1 -26 -7 -54 -14z"/>
<path d="M4546 12189 c-46 -36 -35 -49 43 -49 65 0 69 1 64 20 -6 24 -40 50
-64 50 -9 0 -28 -9 -43 -21z"/>
<path d="M4546 9999 c-46 -36 -35 -49 43 -49 65 0 69 1 64 20 -6 24 -40 50
-64 50 -9 0 -28 -9 -43 -21z"/>
<path d="M5311 7806 c-41 -44 -28 -156 19 -171 67 -21 115 77 75 154 -24 47
-60 53 -94 17z"/>
<path d="M5595 7805 c-39 -38 -32 -45 45 -45 42 0 70 4 70 10 0 19 -48 60 -70
60 -11 0 -32 -11 -45 -25z"/>
<path d="M4403 6714 c-52 -53 -56 -74 -8 -45 l35 20 0 -114 c0 -108 1 -115 20
-115 19 0 20 7 20 150 0 114 -3 150 -12 148 -7 0 -32 -20 -55 -44z"/>
<path d="M4618 6753 c-41 -11 -68 -105 -54 -195 9 -58 33 -87 78 -94 53 -9 93
32 103 104 18 130 -36 209 -127 185z m76 -45 c11 -16 16 -46 16 -98 0 -84 -16
-120 -54 -120 -44 0 -61 34 -61 120 0 63 4 82 19 99 25 27 61 27 80 -1z"/>
<path d="M4826 6738 c-54 -48 -54 -208 0 -255 28 -25 49 -28 89 -13 35 13 55
65 55 140 0 75 -20 127 -55 140 -40 15 -61 12 -89 -12z m90 -29 c28 -31 28
-167 0 -198 -26 -29 -66 -24 -84 9 -17 33 -12 171 7 193 19 23 54 21 77 -4z"/>
<path d="M4190 4830 l0 -60 58 1 c78 1 104 10 121 41 13 23 13 29 -2 52 -16
24 -22 26 -97 26 l-80 0 0 -60z"/>
<path d="M4576 4779 c-46 -36 -35 -49 43 -49 65 0 69 1 64 20 -6 24 -40 50
-64 50 -9 0 -28 -9 -43 -21z"/>
<path d="M5012 4780 c-40 -37 -29 -50 43 -50 72 0 83 12 45 50 -26 26 -60 25
-88 0z"/>
<path d="M5482 4780 c-40 -37 -29 -50 43 -50 72 0 83 12 45 50 -26 26 -60 25
-88 0z"/>
<path d="M6325 4775 c-39 -38 -32 -45 45 -45 79 0 90 13 44 49 -35 27 -59 26
-89 -4z"/>
<path d="M4760 4002 c-18 -14 -24 -32 -28 -75 -4 -50 -2 -58 21 -81 32 -32 51
-33 82 -1 35 34 36 121 2 153 -28 27 -48 28 -77 4z"/>
<path d="M5042 4000 c-40 -37 -29 -50 43 -50 72 0 83 12 45 50 -26 26 -60 25
-88 0z"/>
<path d="M4425 2938 c-3 -7 -27 -73 -55 -147 -27 -73 -50 -135 -50 -137 0 -2
8 -4 18 -4 12 0 22 14 32 43 l15 42 63 3 62 3 20 -46 c13 -31 25 -45 39 -45
17 0 13 15 -41 150 -48 120 -64 150 -79 150 -11 0 -22 -6 -24 -12z m48 -88 c8
-25 18 -53 22 -62 6 -16 1 -18 -45 -18 -38 0 -51 3 -47 13 2 6 13 38 23 70 10
31 21 54 25 50 3 -5 13 -28 22 -53z"/>
<path d="M4620 2800 c0 -124 2 -150 15 -150 10 0 15 16 17 63 l3 62 71 5 c39
3 78 11 87 18 40 33 28 119 -19 141 -14 6 -58 11 -99 11 l-75 0 0 -150z m164
104 c23 -22 20 -71 -3 -84 -11 -5 -45 -10 -75 -10 l-56 0 0 48 c0 27 3 52 7
55 13 14 111 7 127 -9z"/>
<path d="M4935 2938 c-3 -7 -27 -73 -55 -147 -27 -73 -50 -135 -50 -137 0 -2
8 -4 18 -4 12 0 22 14 32 43 l15 42 63 3 62 3 20 -46 c13 -31 25 -45 39 -45
17 0 13 15 -41 150 -48 120 -64 150 -79 150 -11 0 -22 -6 -24 -12z m48 -88 c8
-25 18 -53 22 -62 6 -16 1 -18 -45 -18 -38 0 -51 3 -47 13 2 6 13 38 23 70 10
31 21 54 25 50 3 -5 13 -28 22 -53z"/>
<path d="M11062 540 c-6 -14 -18 -44 -27 -68 -10 -24 -15 -45 -12 -48 2 -3 27
-4 54 -2 l49 3 -27 70 c-26 65 -28 68 -37 45z"/>
<path d="M11350 530 l0 -60 55 0 c31 0 71 7 90 14 31 13 35 19 35 50 0 46 -20
56 -109 56 l-71 0 0 -60z"/>
</g>
</svg>
